<svg width="284" height="333" viewBox="0 0 284 333" fill="none" xmlns="http://www.w3.org/2000/svg">
<path d="M150.5 332.75L146.344 282.875H142.188C102.842 282.875 69.4531 269.159 42.0219 241.728C14.5906 214.297 0.875 180.908 0.875 141.562C0.875 102.217 14.5906 68.8281 42.0219 41.3969C69.4531 13.9656 102.842 0.25 142.188 0.25C161.86 0.25 180.214 3.91858 197.25 11.2557C214.296 18.604 229.264 28.7175 242.154 41.5964C255.032 54.4863 265.14 69.4488 272.478 86.4839C279.826 103.53 283.5 121.89 283.5 141.562C283.5 183.679 270.893 221.429 245.678 254.812C220.464 288.206 188.737 314.185 150.5 332.75ZM141.772 232.584C146.482 232.584 150.5 230.922 153.825 227.597C157.15 224.272 158.812 220.254 158.812 215.544C158.812 210.833 157.15 206.816 153.825 203.491C150.5 200.166 146.482 198.503 141.772 198.503C137.061 198.503 133.044 200.166 129.719 203.491C126.394 206.816 124.731 210.833 124.731 215.544C124.731 220.254 126.394 224.272 129.719 227.597C133.044 230.922 137.061 232.584 141.772 232.584ZM142.188 179.8C145.235 179.8 148.006 178.692 150.5 176.475C152.994 174.258 154.656 171.21 155.488 167.331C156.042 163.729 157.566 160.471 160.059 157.556C162.553 154.652 166.848 150.152 172.944 144.056C177.931 139.069 182.088 133.666 185.413 127.847C188.738 122.028 190.4 115.794 190.4 109.144C190.4 95.0125 185.623 84.4113 176.069 77.3401C166.504 70.28 155.21 66.75 142.188 66.75C132.49 66.75 124.111 68.9667 117.05 73.4C109.979 77.8333 104.227 83.375 99.7937 90.025C97.8542 93.0729 97.505 96.2594 98.7464 99.5844C99.9988 102.909 102.565 105.265 106.444 106.65C109.215 107.758 111.985 107.758 114.756 106.65C117.527 105.542 120.021 103.464 122.238 100.416C124.454 97.3677 127.159 94.874 130.351 92.9344C133.531 90.9948 137.477 90.025 142.188 90.025C149.669 90.025 155.282 92.1031 159.029 96.2594C162.764 100.416 164.631 104.988 164.631 109.975C164.631 114.685 163.246 118.908 160.475 122.643C157.704 126.389 154.379 130.202 150.5 134.081C142.742 140.731 137.544 146.134 134.906 150.291C132.279 154.447 130.689 160.127 130.134 167.331C129.857 170.656 130.899 173.566 133.26 176.059C135.61 178.553 138.585 179.8 142.188 179.8V179.8Z" fill="#723EEB"/>
</svg>
