<svg width="470" height="384" viewBox="0 0 470 384" fill="none" xmlns="http://www.w3.org/2000/svg">
<path d="M64 320C52.2667 320 42.2258 315.826 33.8773 307.477C25.5147 299.115 21.3333 289.067 21.3333 277.333V42.6667C21.3333 30.9333 25.5147 20.8853 33.8773 12.5227C42.2258 4.17422 52.2667 0 64 0H405.333C417.067 0 427.115 4.17422 435.477 12.5227C443.826 20.8853 448 30.9333 448 42.6667V277.333C448 289.067 443.826 299.115 435.477 307.477C427.115 315.826 417.067 320 405.333 320H64ZM55.1667 283.5H413.5V31.5H55.1667V283.5ZM21.3333 384C15.2889 384 10.2258 381.952 6.144 377.856C2.048 373.774 0 368.711 0 362.667C0 356.622 2.048 351.559 6.144 347.477C10.2258 343.381 15.2889 341.333 21.3333 341.333H448C454.044 341.333 459.108 343.381 463.189 347.477C467.285 351.559 469.333 356.622 469.333 362.667C469.333 368.711 467.285 373.774 463.189 377.856C459.108 381.952 454.044 384 448 384H21.3333Z" fill="#723EEB"/>
<path d="M285.505 149.587C283.164 149.584 280.877 150.299 278.954 151.637C277.031 152.975 275.564 154.871 274.756 157.071L274.751 157.083L259.749 198.212L219.002 86.5304C219.001 86.5277 218.999 86.5241 218.998 86.5214C218.197 84.3161 216.735 82.4136 214.813 81.0689C212.89 79.7226 210.599 79.001 208.252 79L208.248 79L285.5 154.587M285.505 149.587L285.5 154.587M285.505 149.587H285.5V154.587M285.505 149.587H330.562C333.591 149.587 336.498 150.786 338.644 152.925C340.791 155.065 342 157.971 342 161.004C342 164.037 340.791 166.943 338.644 169.082C336.498 171.222 333.591 172.421 330.562 172.421H293.505M285.5 154.587H330.562C332.27 154.587 333.907 155.263 335.115 156.466C336.322 157.67 337 159.302 337 161.004C337 162.706 336.322 164.338 335.115 165.541C333.907 166.745 332.27 167.421 330.562 167.421H290.006M293.505 172.421L294.703 169.134L290.006 167.421M293.505 172.421H290.006V167.421M293.505 172.421L290.006 167.421M210.911 116.5L208.25 109.206L205.589 116.5L208.25 123.794L210.911 116.5ZM259.75 212.802L262.411 205.507L257.089 205.507L259.75 212.802ZM253.699 233.772L249 235.483L249.002 235.486L253.699 233.772ZM265.801 233.772L270.498 235.486C270.499 235.485 270.499 235.484 270.499 235.483L265.801 233.772ZM182.5 172.421V167.421L182.499 172.421C182.499 172.421 182.5 172.421 182.5 172.421ZM174.495 149.587L173.297 152.873L177.994 154.587V149.587H174.495ZM197.498 86.5304L202.199 88.2352L197.502 86.5217L197.501 86.5233C197.5 86.5257 197.499 86.528 197.498 86.5304Z" fill="#723EEB" stroke="#723EEB" stroke-width="10"/>
</svg>
