<svg width="395" height="395" viewBox="0 0 395 395" fill="none" xmlns="http://www.w3.org/2000/svg">
<path d="M0 123.437C0.00602761 152.006 9.91732 179.689 28.0452 201.769C46.1731 223.849 71.396 238.961 99.4166 244.53C101.012 226.842 105.552 209.545 112.847 193.352C91.2203 186.045 77.3212 169.455 74.0625 145.903H61.7188V135.386H73.2231V124.672C73.2231 123.536 73.2231 122.376 73.3219 121.339H61.7188V110.797H74.3341C79.8887 79.9875 104.008 61.7187 140.25 61.7187C148.051 61.7187 154.815 62.4841 160.469 63.8172V81.9131C153.866 80.444 147.112 79.7645 140.348 79.8887C117.661 79.8887 102.379 91.3931 97.5403 110.797H144.866V121.339H95.985C95.9109 122.475 95.9109 123.734 95.9109 124.968V135.386H144.866V145.928H97.0219C99.935 160.79 108.576 171.356 121.833 176.269C134.832 154.74 152.709 136.568 174.022 123.219C195.334 109.869 219.487 101.716 244.53 99.4166C238.475 69.4339 221.508 42.7653 196.916 24.5767C172.323 6.38813 141.855 -2.02592 111.414 0.964437C80.9724 3.95479 52.7242 18.1367 32.141 40.7631C11.5578 63.3894 0.1046 92.8498 0 123.437H0ZM395 259.219C395 295.23 380.695 329.767 355.231 355.231C329.767 380.695 295.23 395 259.219 395C223.207 395 188.671 380.695 163.207 355.231C137.743 329.767 123.438 295.23 123.438 259.219C123.438 223.207 137.743 188.671 163.207 163.207C188.671 137.743 223.207 123.437 259.219 123.437C295.23 123.437 329.767 137.743 355.231 163.207C380.695 188.671 395 223.207 395 259.219V259.219ZM203.672 291.856C205.375 312.47 222.089 328.517 252.158 330.418V345.625H265.489V330.319C296.571 328.196 314.766 312.05 314.766 288.597C314.766 267.242 300.867 256.256 276.006 250.578L265.489 248.109V206.733C278.821 208.214 287.313 215.3 289.338 225.125H312.741C311.013 205.277 293.51 189.748 265.489 188.045V172.812H252.158V188.341C225.594 190.884 207.523 206.412 207.523 228.384C207.523 247.813 220.953 260.182 243.32 265.243L252.158 267.341V311.285C238.481 309.31 229.446 302.002 227.397 291.856H203.672ZM252.059 245.073C238.926 242.11 231.816 236.087 231.816 227.002C231.816 216.88 239.493 209.251 252.158 207.029V245.048H252.035L252.059 245.073ZM267.415 270.847C283.338 274.426 290.695 280.228 290.695 290.498C290.695 302.2 281.561 310.248 265.514 311.729V270.402L267.415 270.847Z" fill="#723EEB"/>
</svg>
