<svg width="381" height="371" viewBox="0 0 381 371" fill="none" xmlns="http://www.w3.org/2000/svg">
<path d="M346.75 181V42.875C346.75 35.5484 343.84 28.5219 338.659 23.3412C333.478 18.1605 326.452 15.25 319.125 15.25H42.875C35.5484 15.25 28.5219 18.1605 23.3412 23.3412C18.1605 28.5219 15.25 35.5484 15.25 42.875V319.125C15.25 326.452 18.1605 333.478 23.3412 338.659C28.5219 343.839 35.5484 346.75 42.875 346.75H181M319.585 263.875V355.958M365.167 309.456H273.083" stroke="#723EEB" stroke-width="30" stroke-linecap="round" stroke-linejoin="round"/>
<path d="M181 171.792C206.428 171.792 227.042 151.178 227.042 125.75C227.042 100.322 206.428 79.7083 181 79.7083C155.572 79.7083 134.958 100.322 134.958 125.75C134.958 151.178 155.572 171.792 181 171.792Z" stroke="#723EEB" stroke-width="30" stroke-linecap="round" stroke-linejoin="round"/>
<path d="M263.875 245.458C263.875 204.776 226.765 171.792 181 171.792C135.235 171.792 98.125 204.776 98.125 245.458" stroke="#723EEB" stroke-width="30" stroke-linecap="round" stroke-linejoin="round"/>
</svg>
