<svg width="276" height="345" viewBox="0 0 276 345" fill="none" xmlns="http://www.w3.org/2000/svg">
<path d="M245.047 147.5L239.969 135.781L228.25 130.703C226.167 129.661 225.125 127.969 225.125 125.625C225.125 123.281 226.167 121.589 228.25 120.547L239.969 115.469L245.047 103.75C246.089 101.667 247.781 100.625 250.125 100.625C252.469 100.625 254.161 101.667 255.203 103.75L260.281 115.469L272 120.547C274.083 121.589 275.125 123.281 275.125 125.625C275.125 127.969 274.083 129.661 272 130.703L260.281 135.781L255.203 147.5C254.161 149.583 252.469 150.625 250.125 150.625C247.781 150.625 246.089 149.583 245.047 147.5ZM164.969 219.375L152.469 192.031L125.125 179.531C122 178.229 120.437 175.885 120.437 172.5C120.437 169.115 122 166.771 125.125 165.469L152.469 152.969L164.969 125.625C166.271 122.5 168.615 120.937 172 120.937C175.385 120.937 177.729 122.5 179.031 125.625L191.531 152.969L218.875 165.469C222 166.771 223.562 169.115 223.562 172.5C223.562 175.885 222 178.229 218.875 179.531L191.531 192.031L179.031 219.375C177.729 222.5 175.385 224.063 172 224.063C168.615 224.063 166.271 222.5 164.969 219.375ZM245.047 241.25L239.969 229.531L228.25 224.453C226.167 223.411 225.125 221.719 225.125 219.375C225.125 217.031 226.167 215.339 228.25 214.297L239.969 209.219L245.047 197.5C246.089 195.417 247.781 194.375 250.125 194.375C252.469 194.375 254.161 195.417 255.203 197.5L260.281 209.219L272 214.297C274.083 215.339 275.125 217.031 275.125 219.375C275.125 221.719 274.083 223.411 272 224.453L260.281 229.531L255.203 241.25C254.161 243.333 252.469 244.375 250.125 244.375C247.781 244.375 246.089 243.333 245.047 241.25ZM31.375 344.375C22.7812 344.375 15.4271 341.318 9.3125 335.203C3.1875 329.078 0.125 321.719 0.125 313.125V31.875C0.125 23.2812 3.1875 15.9219 9.3125 9.79688C15.4271 3.68229 22.7812 0.625 31.375 0.625H187.625C196.219 0.625 203.578 3.68229 209.703 9.79688C215.818 15.9219 218.875 23.2812 218.875 31.875V94.375H187.625V78.75H31.375V266.25H187.625V250.625H218.875V313.125C218.875 321.719 215.818 329.078 209.703 335.203C203.578 341.318 196.219 344.375 187.625 344.375H31.375Z" fill="#723EEB"/>
</svg>
