<svg width="442" height="336" viewBox="0 0 442 336" fill="none" xmlns="http://www.w3.org/2000/svg">
<path d="M235.933 154.347C235.933 152.107 235.293 129.813 235.187 127.573V122.24L229.96 120.64C189.625 108.15 152.989 85.9117 123.293 55.8933M216.733 244.373C229.861 216.203 236.425 185.422 235.933 154.347M186.013 156.693L115.613 228.373L73.5867 189.333M400.52 45.76L276.147 122.133M276.147 122.133L151.773 45.76M156.36 12.6933C147.59 12.6933 139.18 16.1771 132.978 22.3783C126.777 28.5795 123.293 36.9902 123.293 45.76V56.4267L118.92 60.9067C91.5712 89.2159 57.2454 109.819 19.4 120.64L14.28 122.24V127.573C9.82753 167.652 16.2766 208.189 32.9467 244.907C51.8354 281.006 83.639 308.658 122.013 322.347L124.893 323.413L127.773 322.347C166.193 308.69 198.041 281.033 216.947 244.907H395.933C404.686 244.851 413.064 241.349 419.253 235.16C425.442 228.971 428.944 220.593 429 211.84V45.76C428.972 36.9988 425.479 28.6045 419.284 22.4094C413.089 16.2143 404.695 12.7215 395.933 12.6933H156.36Z" stroke="#723EEB" stroke-width="25" stroke-linecap="round" stroke-linejoin="round"/>
</svg>
