<svg width="333" height="333" viewBox="0 0 333 333" fill="none" xmlns="http://www.w3.org/2000/svg">
<path d="M122.613 66.2146C87.8481 105.24 63.9897 161.307 61.7743 166.59L0.0834961 140.175L69.1022 71.1567C77.1118 63.1471 88.7002 59.5683 99.9477 61.7838L122.613 66.2146ZM156.356 247.708C156.356 247.708 220.091 221.294 256.731 184.654C348.756 92.6292 333.418 20.7133 328.476 4.52375C312.287 -0.588751 240.371 -15.7558 148.346 76.2692C111.706 112.909 85.2918 176.645 85.2918 176.645L156.356 247.708ZM266.786 210.387C227.76 245.152 171.693 269.01 166.41 271.226L192.825 332.917L261.843 263.898C269.853 255.888 273.432 244.3 271.216 233.052L266.786 210.387ZM119.375 264.75C119.375 278.895 113.581 291.676 104.378 300.878C84.2693 320.987 0.0834961 332.917 0.0834961 332.917C0.0834961 332.917 12.0127 248.731 32.1218 228.622C39.2588 221.447 48.3668 216.556 58.2893 214.568C68.2118 212.58 78.5012 213.586 87.851 217.457C97.2008 221.329 105.189 227.891 110.802 236.312C116.415 244.732 119.399 254.63 119.375 264.75ZM187.542 111.375C187.542 92.6292 202.879 77.2917 221.625 77.2917C240.371 77.2917 255.708 92.6292 255.708 111.375C255.708 130.121 240.371 145.458 221.625 145.458C202.879 145.458 187.542 130.121 187.542 111.375Z" fill="#723EEB"/>
</svg>
