<svg width="346" height="394" viewBox="0 0 346 394" fill="none" xmlns="http://www.w3.org/2000/svg">
<path fill-rule="evenodd" clip-rule="evenodd" d="M173 367.725C173.837 367.589 174.66 367.383 175.463 367.109C177.334 366.543 179.747 365.607 182.702 364.204C188.612 361.421 196.172 357.062 204.692 351.079C226.106 335.665 245.089 317.13 261.01 296.091C298.612 246.915 330.132 172.203 316.49 69.8365C316.181 67.6389 315.26 65.5727 313.831 63.8743C312.403 62.1759 310.525 60.9139 308.413 60.2328C292.382 54.9876 265.319 46.4427 238.552 39.1784C211.218 31.7662 186.076 26.2749 173 26.2749V367.725ZM100.898 13.79C127.616 6.52563 156.009 0 173 0C189.991 0 218.384 6.52563 245.102 13.79C272.436 21.1775 299.991 29.9194 316.194 35.2137C322.969 37.451 328.975 41.5538 333.523 47.051C338.07 52.5482 340.975 59.2167 341.903 66.2905C356.579 176.537 322.523 258.242 281.202 312.294C263.68 335.417 242.787 355.778 219.221 372.699C211.073 378.555 202.439 383.704 193.414 388.09C186.519 391.341 179.107 394 173 394C166.893 394 159.506 391.341 152.586 388.09C143.561 383.704 134.927 378.555 126.779 372.699C103.213 355.778 82.3205 335.416 64.7978 312.294C23.477 258.242 -10.5794 176.537 4.09714 66.2905C5.02518 59.2167 7.92985 52.5482 12.4774 47.051C17.025 41.5538 23.0311 37.451 29.8056 35.2137C53.3272 27.5014 77.0316 20.3581 100.898 13.79V13.79Z" fill="#723EEB"/>
</svg>
