<svg width="318" height="400" viewBox="0 0 318 400" fill="none" xmlns="http://www.w3.org/2000/svg">
<path d="M159 386.875C175.225 386.875 305.376 312.297 305.376 224.284V32.33C266.975 32.3204 159 13.125 159 13.125C159 13.125 50.9287 32.3204 12.6241 32.3204V224.275C12.6241 312.307 142.775 386.875 159 386.875Z" stroke="#723EEB" stroke-width="25" stroke-linecap="round" stroke-linejoin="round"/>
<path d="M206.121 130.684H111.888C86.769 130.684 66.4058 151.047 66.4058 176.166V245.415C66.4058 270.535 86.769 290.898 111.888 290.898H206.121C231.241 290.898 251.604 270.535 251.604 245.415V176.166C251.604 151.047 231.241 130.684 206.121 130.684Z" stroke="#723EEB" stroke-width="25" stroke-linecap="round" stroke-linejoin="round"/>
<path d="M109.598 184.082H251.594M66.4058 237.49H208.402" stroke="#723EEB" stroke-width="25" stroke-linecap="round" stroke-linejoin="round"/>
<path d="M158.875 112.466C175.865 112.466 189.638 98.693 189.638 81.7033C189.638 64.7137 175.865 50.9408 158.875 50.9408C141.886 50.9408 128.113 64.7137 128.113 81.7033C128.113 98.693 141.886 112.466 158.875 112.466Z" stroke="#723EEB" stroke-width="25" stroke-linecap="round" stroke-linejoin="round"/>
</svg>
